<svg xmlns="http://www.w3.org/2000/svg" viewBox="0 0 96 84.51"><defs><style>.cls-1{fill:none;stroke:#0cedae;stroke-linecap:round;stroke-linejoin:round;stroke-width:6px;}</style></defs><g id="Capa_2" data-name="Capa 2"><g id="Capa_4" data-name="Capa 4"><path class="cls-1" d="M48,3C23.15,3,3,19.16,3,39.09S23.15,75.18,48,75.18A54.35,54.35,0,0,0,66.72,71.9a44.24,44.24,0,0,0,25.8,9.61A41.32,41.32,0,0,1,81.94,62.77C88.82,56.43,93,48.15,93,39.09,93,19.16,72.85,3,48,3ZM65.5,33.59a5.5,5.5,0,1,1-5.5,5.5h0A5.5,5.5,0,0,1,65.5,33.59Zm-35,11a5.5,5.5,0,1,1,5.5-5.5h0A5.5,5.5,0,0,1,30.5,44.59Zm17.5,0a5.5,5.5,0,1,1,5.5-5.5h0A5.5,5.5,0,0,1,48,44.59Z"/></g></g></svg>