<svg xmlns="http://www.w3.org/2000/svg" viewBox="0 0 474 476"><defs><style>.cls-1,.cls-13,.cls-24,.cls-28{font-size:30px;fill:#2d334f;font-family:Auro-Regular, Auro;}.cls-1{letter-spacing:0.37em;}.cls-2{letter-spacing:0.37em;}.cls-21,.cls-24,.cls-3{letter-spacing:0.02em;}.cls-21,.cls-26,.cls-36,.cls-37,.cls-38,.cls-39,.cls-4,.cls-40{font-family:Auro-Black, Auro;font-weight:800;}.cls-4{letter-spacing:0.03em;}.cls-5{letter-spacing:0.02em;}.cls-6{letter-spacing:0.03em;}.cls-7{letter-spacing:-0.01em;}.cls-8{letter-spacing:-0.07em;}.cls-9{letter-spacing:0.46em;}.cls-10{letter-spacing:-0.04em;}.cls-11{letter-spacing:-0.02em;}.cls-12{fill:none;stroke:#0cedae;stroke-miterlimit:10;stroke-width:8px;}.cls-13{letter-spacing:0.26em;}.cls-14{letter-spacing:0.22em;}.cls-15{letter-spacing:0.25em;}.cls-16{letter-spacing:0.1em;}.cls-17{letter-spacing:0.07em;}.cls-18{letter-spacing:0.1em;}.cls-19{letter-spacing:0.08em;}.cls-20{letter-spacing:0.02em;}.cls-22{letter-spacing:0.01em;}.cls-23{letter-spacing:0.03em;}.cls-25{letter-spacing:0.51em;}.cls-27{letter-spacing:0.03em;}.cls-28{letter-spacing:0.08em;}.cls-29{letter-spacing:0.08em;}.cls-30{letter-spacing:0.09em;}.cls-31{letter-spacing:0.08em;}.cls-32{letter-spacing:0.09em;}.cls-33{letter-spacing:0.06em;}.cls-34{letter-spacing:0.01em;}.cls-35{letter-spacing:0.02em;}.cls-36,.cls-41{letter-spacing:-0.02em;}.cls-37,.cls-42{letter-spacing:0.01em;}.cls-38{letter-spacing:0.02em;}.cls-39,.cls-44{letter-spacing:0em;}.cls-40{letter-spacing:-0.09em;}.cls-43{letter-spacing:0.3em;}.cls-45{letter-spacing:-0.05em;}.cls-46{letter-spacing:-0.03em;}</style></defs><g id="Capa_2" data-name="Capa 2"><g id="Capa_4" data-name="Capa 4"><text class="cls-1" transform="translate(42.07 80.34)">S<tspan class="cls-2" x="26.2" y="0">OMO</tspan><tspan class="cls-3" x="129.96" y="0">S </tspan><tspan class="cls-4"><tspan x="0" y="40">E</tspan><tspan class="cls-5" x="17.21" y="40">X</tspan><tspan class="cls-6" x="37.09" y="40">PE</tspan><tspan class="cls-7" x="73.26" y="40">R</tspan><tspan class="cls-8" x="90.98" y="40">T</tspan><tspan class="cls-5" x="106.78" y="40">O</tspan><tspan class="cls-3" x="129.81" y="40">S</tspan></tspan><tspan class="cls-3"><tspan x="0" y="80">EN</tspan><tspan class="cls-9" x="34.89" y="80"> </tspan><tspan class="cls-10" x="57.99" y="80">P</tspan><tspan class="cls-11" x="73.74" y="80">Y</tspan><tspan x="89.22" y="80">MES</tspan></tspan></text><rect class="cls-12" x="4" y="4" width="221" height="221" rx="12"/><text class="cls-13" transform="translate(265.07 80.34)">REPO<tspan class="cls-14" x="103.39" y="0">R</tspan><tspan class="cls-15" x="126.88" y="0">T</tspan><tspan x="151.07" y="0">E</tspan><tspan class="cls-3" x="173.96" y="0">S </tspan><tspan class="cls-16"><tspan x="0" y="40">FR</tspan><tspan class="cls-17" x="37.71" y="40">E</tspan><tspan class="cls-18" x="54.76" y="40">CUE</tspan><tspan class="cls-19" x="115.69" y="40">NT</tspan><tspan x="156.08" y="40">E</tspan><tspan class="cls-20" x="173.96" y="40">S </tspan></tspan><tspan class="cls-21"><tspan x="0" y="80">DE </tspan><tspan class="cls-22" x="46.53" y="80">T</tspan><tspan x="64.53" y="80">U J</tspan><tspan class="cls-23" x="110.16" y="80">U</tspan><tspan x="131.91" y="80">ICIO</tspan></tspan></text><rect class="cls-12" x="249" y="4" width="221" height="221" rx="12"/><text class="cls-24" transform="translate(20.07 333.34)">5+<tspan class="cls-25" x="29.22" y="0"> </tspan><tspan class="cls-20" x="53.62" y="0">AÑ</tspan><tspan class="cls-22" x="91.51" y="0">O</tspan><tspan x="114.76" y="0">S</tspan><tspan class="cls-25" x="130.33" y="0"> </tspan><tspan x="154.73" y="0">DE</tspan><tspan class="cls-26"><tspan x="0.78" y="40">E</tspan><tspan class="cls-22" x="17.7" y="40">X</tspan><tspan class="cls-20" x="37.29" y="40">PER</tspan><tspan class="cls-27" x="91.56" y="40">I</tspan><tspan x="100.26" y="40">ENCIA</tspan></tspan></text><rect class="cls-12" x="4" y="251" width="221" height="221" rx="12"/><text class="cls-28" transform="translate(258 328.34)">T<tspan class="cls-29" x="19.03" y="0">R</tspan><tspan class="cls-30" x="38.24" y="0">A</tspan><tspan class="cls-31" x="58.99" y="0">B</tspan><tspan class="cls-32" x="78.8" y="0">A</tspan><tspan class="cls-33" x="99.54" y="0">J</tspan><tspan class="cls-32" x="114.94" y="0">A</tspan><tspan class="cls-31" x="135.69" y="0">MO</tspan><tspan class="cls-34" x="188.03" y="0">S </tspan><tspan class="cls-34"><tspan x="0" y="40">EN</tspan><tspan class="cls-35" x="34.29" y="40"> </tspan><tspan class="cls-36" x="44.21" y="40">C</tspan><tspan class="cls-37" x="62.57" y="40">ONJ</tspan><tspan class="cls-38" x="122.54" y="40">U</tspan><tspan class="cls-39" x="143.99" y="40">N</tspan><tspan class="cls-40" x="165.23" y="40">T</tspan><tspan class="cls-26" x="180.44" y="40">O</tspan></tspan><tspan class="cls-41"><tspan x="0" y="80">C</tspan><tspan class="cls-42" x="18.36" y="80">ON</tspan><tspan class="cls-43" x="60.75" y="80"> </tspan><tspan class="cls-44" x="79.03" y="80">T</tspan><tspan class="cls-34" x="95.59" y="80">U</tspan><tspan class="cls-43" x="114.25" y="80"> </tspan><tspan class="cls-45" x="132.53" y="80">P</tspan><tspan class="cls-46" x="147.98" y="80">Y</tspan><tspan class="cls-34" x="163.16" y="80">ME</tspan></tspan></text><rect class="cls-12" x="249" y="251" width="221" height="221" rx="12"/></g></g></svg>