<svg xmlns="http://www.w3.org/2000/svg" viewBox="0 0 474 476"><defs><style>.cls-1{fill:#2d334f;}.cls-2{fill:#0cedae;}</style></defs><g id="Capa_2" data-name="Capa 2"><g id="Capa_4" data-name="Capa 4"><path class="cls-1" d="M48.46,69.93c-2.88-.93-5.52-2.13-5.52-5.64,0-3.24,2.55-5.13,6.75-5.13a29.59,29.59,0,0,1,3.69.33c.72.12.93.42.78,1.2,0,.18-.09.33-.12.54-.15.69-.57.69-1.26.6a23.13,23.13,0,0,0-3-.3c-2.58,0-4.38.63-4.38,2.88,0,1.74,2.07,2.52,4.74,3.36,3.36,1.08,6,2.55,6,6.24,0,3.54-2.37,6.48-7.23,6.48A18.56,18.56,0,0,1,44.86,80c-.84-.21-1-.48-.9-1.26a6.31,6.31,0,0,1,.18-.72c.18-.66.84-.45,1.5-.3a14,14,0,0,0,3.33.36c2.85,0,4.74-1.17,4.74-4C53.71,72,51.37,70.86,48.46,69.93Z"/><path class="cls-1" d="M90.5,69.81A10.67,10.67,0,1,1,79.82,59.16,10.68,10.68,0,0,1,90.5,69.81Zm-2.49,0a8.18,8.18,0,1,0-8.19,8.34A8,8,0,0,0,88,69.81Z"/><path class="cls-1" d="M126.05,79.53a.74.74,0,0,1-.75.81h-.84a.91.91,0,0,1-.9-.81L122.3,65.79l-6,13.74a1.52,1.52,0,0,1-1.26.81h-.66a1.52,1.52,0,0,1-1.26-.81l-6.12-14-1.29,14a.88.88,0,0,1-.87.81H104a.72.72,0,0,1-.72-.81L105,60.09a.91.91,0,0,1,.9-.81h.3a1.39,1.39,0,0,1,1.17.81l7.32,16.77L122,60.09a1.46,1.46,0,0,1,1.11-.81h.3a.93.93,0,0,1,.84.81Z"/><path class="cls-1" d="M160.17,69.81a10.67,10.67,0,1,1-10.68-10.65A10.68,10.68,0,0,1,160.17,69.81Zm-2.49,0a8.18,8.18,0,1,0-8.19,8.34A8,8,0,0,0,157.68,69.81Z"/><path class="cls-1" d="M178.42,69.93c-2.88-.93-5.52-2.13-5.52-5.64,0-3.24,2.55-5.13,6.75-5.13a29.59,29.59,0,0,1,3.69.33c.72.12.93.42.78,1.2,0,.18-.09.33-.12.54-.15.69-.57.69-1.26.6a23.13,23.13,0,0,0-3-.3c-2.58,0-4.38.63-4.38,2.88,0,1.74,2.07,2.52,4.74,3.36,3.36,1.08,6,2.55,6,6.24,0,3.54-2.37,6.48-7.23,6.48a18.56,18.56,0,0,1-4.11-.45c-.84-.21-1-.48-.9-1.26a6.31,6.31,0,0,1,.18-.72c.18-.66.84-.45,1.5-.3a14,14,0,0,0,3.33.36c2.85,0,4.74-1.17,4.74-4C183.67,72,181.33,70.86,178.42,69.93Z"/><path class="cls-1" d="M48.61,104v3.24h5.76a.81.81,0,0,1,.81.81v3.15a.78.78,0,0,1-.81.78H48.61v3.63H57.1a.76.76,0,0,1,.78.78v3.15a.78.78,0,0,1-.78.81H44a.83.83,0,0,1-.81-.84V100.06a.81.81,0,0,1,.81-.81H57.1a.77.77,0,0,1,.78.78v3.18a.77.77,0,0,1-.78.78Z"/><path class="cls-1" d="M77.76,120.34H73.17a1.75,1.75,0,0,1-1.29-.84l-2.91-5-2.88,5a1.75,1.75,0,0,1-1.29.84H60.21c-.45,0-.6-.39-.33-.84l6.18-9.87-6-9.57c-.27-.45-.12-.81.33-.81H65a1.76,1.76,0,0,1,1.32.81L69,104.68l2.7-4.62A1.76,1.76,0,0,1,73,99.25h4.56c.45,0,.6.36.33.81l-6,9.57,6.18,9.87C78.36,120,78.21,120.34,77.76,120.34Z"/><path class="cls-1" d="M96.71,106.72c0,3.81-2.22,7.59-8.22,7.59H85.76v5.19a.83.83,0,0,1-.81.84H81.08a.83.83,0,0,1-.81-.84V100.06a.81.81,0,0,1,.81-.81h7.41C94.49,99.25,96.71,102.88,96.71,106.72Zm-5.4,0c0-1.41-.57-2.7-3.3-2.7l-2.25,0v5.55H88C90.74,109.54,91.31,108.1,91.31,106.72Z"/><path class="cls-1" d="M104.65,104v3.24h5.76a.81.81,0,0,1,.81.81v3.15a.78.78,0,0,1-.81.78h-5.76v3.63h8.49a.76.76,0,0,1,.78.78v3.15a.78.78,0,0,1-.78.81H100.06a.83.83,0,0,1-.81-.84V100.06a.81.81,0,0,1,.81-.81h13.08a.77.77,0,0,1,.78.78v3.18a.77.77,0,0,1-.78.78Z"/><path class="cls-1" d="M132.69,119.5c.18.45,0,.84-.48.84h-3.87a1.38,1.38,0,0,1-1.17-.84s-.42-.9-1.2-2.76-1.74-2.79-3.48-2.79H122v5.55a.84.84,0,0,1-.84.84h-3.84a.83.83,0,0,1-.81-.84V100.06a.81.81,0,0,1,.81-.81h7.38c6,0,8.22,3.39,8.22,7.23a6.39,6.39,0,0,1-4,6.33,9.22,9.22,0,0,1,2.46,3.54C132.15,118.27,132.69,119.5,132.69,119.5ZM124.17,104,122,104v5.19h2.22c2.76,0,3.33-1.2,3.33-2.58S126.93,104,124.17,104Z"/><path class="cls-1" d="M150.32,100v3.18a.77.77,0,0,1-.78.78h-4.89V119.5a.85.85,0,0,1-.84.84h-3.75a.83.83,0,0,1-.8-.84V104h-4.89a.89.89,0,0,1-.82-.87V100a.81.81,0,0,1,.82-.78h15.17A.77.77,0,0,1,150.32,100Z"/><path class="cls-1" d="M170.93,109.78c0,5.91-3.93,10.68-10.77,10.68s-10.8-4.77-10.8-10.68,4-10.65,10.8-10.65S170.93,103.9,170.93,109.78Zm-5.49,0c0-3.81-2-5.88-5.28-5.88s-5.31,2.07-5.31,5.88,2,5.91,5.31,5.91S165.44,113.62,165.44,109.78Z"/><path class="cls-1" d="M178,111.88c-2.88-.93-5.58-2.67-5.58-6.48,0-3.57,2.37-6.27,7.23-6.27a30.14,30.14,0,0,1,3.78.36,1.27,1.27,0,0,1,1.17,1.56c-.09.48-.36,1.86-.45,2.34a1,1,0,0,1-1.29.81,29.25,29.25,0,0,0-3.09-.3c-1.65,0-2.1.42-2.1,1.17,0,1,.87,1.26,3.21,2,3.36,1,5.64,2.82,5.64,6.48s-2.4,6.9-7.23,6.9a20.52,20.52,0,0,1-4.95-.54,1.29,1.29,0,0,1-1.08-1.62l.57-2.25a1,1,0,0,1,1.29-.84,16.51,16.51,0,0,0,3.93.48c1.53,0,2.22-.6,2.22-1.59S180.58,112.72,178,111.88Z"/><path class="cls-1" d="M46,141.62v6.54h6.75a.79.79,0,0,1,.78.78v.78a.79.79,0,0,1-.78.78H46V158h9.39a.8.8,0,0,1,.78.81v.75a.77.77,0,0,1-.78.78h-11a.81.81,0,0,1-.81-.81V140.09a.81.81,0,0,1,.81-.81H55.51a.79.79,0,0,1,.78.78v.78a.79.79,0,0,1-.78.78Z"/><path class="cls-1" d="M74.89,140.09v19.44a.81.81,0,0,1-.81.81h-.51a1.92,1.92,0,0,1-1.38-.81L61.6,144.35v15.18a.81.81,0,0,1-.81.81h-.87a.81.81,0,0,1-.81-.81V140.09a.81.81,0,0,1,.81-.81h.33a2.14,2.14,0,0,1,1.41.81L72.4,155.54V140.09a.81.81,0,0,1,.81-.81h.87A.81.81,0,0,1,74.89,140.09Z"/><path class="cls-1" d="M116,146.84a7.21,7.21,0,0,1-7.62,7.47h-4.35v5.22a.81.81,0,0,1-.81.81h-.87a.81.81,0,0,1-.81-.81V140.09a.81.81,0,0,1,.81-.81h6A7.3,7.3,0,0,1,116,146.84Zm-2.4,0a5,5,0,0,0-5.22-5.22h-4.35V152h4.35A5,5,0,0,0,113.62,146.84Z"/><path class="cls-1" d="M131,140.09l-5.55,12.21a1,1,0,0,1-.39.48v6.75a.81.81,0,0,1-.81.81h-.78a.81.81,0,0,1-.81-.81v-6.75a1.53,1.53,0,0,1-.39-.48l-5.52-12.21c-.21-.45,0-.81.45-.81h1.08a1.39,1.39,0,0,1,1.17.81s.51,1.11,1.14,2.52c.84,1.83,2.31,5.22,3.27,7.47,1-2.25,2.43-5.64,3.27-7.47.63-1.41,1.14-2.52,1.14-2.52a1.43,1.43,0,0,1,1.17-.81h1.11C131,139.28,131.2,139.64,131,140.09Z"/><path class="cls-1" d="M155,159.53a.74.74,0,0,1-.75.81h-.84a.91.91,0,0,1-.9-.81l-1.26-13.74-6,13.74a1.52,1.52,0,0,1-1.26.81h-.66a1.52,1.52,0,0,1-1.26-.81l-6.12-14-1.29,14a.88.88,0,0,1-.87.81h-.87a.72.72,0,0,1-.72-.81L134,140.09a.91.91,0,0,1,.9-.81h.3a1.39,1.39,0,0,1,1.17.81l7.32,16.77L151,140.09a1.46,1.46,0,0,1,1.11-.81h.3a.93.93,0,0,1,.84.81Z"/><path class="cls-1" d="M160.42,141.62v6.54h6.75a.79.79,0,0,1,.78.78v.78a.79.79,0,0,1-.78.78h-6.75V158h9.39a.8.8,0,0,1,.78.81v.75a.77.77,0,0,1-.78.78h-11a.81.81,0,0,1-.81-.81V140.09a.81.81,0,0,1,.81-.81H169.9a.79.79,0,0,1,.78.78v.78a.79.79,0,0,1-.78.78Z"/><path class="cls-1" d="M178.42,149.93c-2.88-.93-5.52-2.13-5.52-5.64,0-3.24,2.55-5.13,6.75-5.13a29.59,29.59,0,0,1,3.69.33c.72.12.93.42.78,1.2,0,.18-.09.33-.12.54-.15.69-.57.69-1.26.6a23.13,23.13,0,0,0-3-.3c-2.58,0-4.38.63-4.38,2.88,0,1.74,2.07,2.52,4.74,3.36,3.36,1.08,6,2.55,6,6.24s-2.37,6.48-7.23,6.48a18.56,18.56,0,0,1-4.11-.45c-.84-.21-1-.48-.9-1.26a6.31,6.31,0,0,1,.18-.72c.18-.66.84-.45,1.5-.3a14,14,0,0,0,3.33.36c2.85,0,4.74-1.17,4.74-4C183.67,152,181.33,150.86,178.42,149.93Z"/><path class="cls-2" d="M213,229H16A16,16,0,0,1,0,213V16A16,16,0,0,1,16,0H213a16,16,0,0,1,16,16V213A16,16,0,0,1,213,229ZM16,8a8,8,0,0,0-8,8V213a8,8,0,0,0,8,8H213a8,8,0,0,0,8-8V16a8,8,0,0,0-8-8Z"/><path class="cls-1" d="M280.37,79.53c.18.45,0,.81-.48.81H279a1.43,1.43,0,0,1-1.17-.81s-.36-.9-1.17-2.76a5.44,5.44,0,0,0-5.1-3.66h-2.49v6.42a.83.83,0,0,1-.84.81h-.84a.81.81,0,0,1-.81-.81V60.09a.81.81,0,0,1,.81-.81h6c5,0,7.62,3.15,7.62,7a6.4,6.4,0,0,1-4.71,6.48,8.73,8.73,0,0,1,2.7,3.66C279.83,78.3,280.37,79.53,280.37,79.53Zm-7-17.91h-4.35v9.15h4.35c3.69,0,5.22-2.19,5.22-4.53S277.1,61.62,273.41,61.62Z"/><path class="cls-1" d="M293.78,61.62v6.54h6.75a.79.79,0,0,1,.78.78v.78a.79.79,0,0,1-.78.78h-6.75V78h9.39a.8.8,0,0,1,.78.81v.75a.77.77,0,0,1-.78.78h-11a.81.81,0,0,1-.81-.81V60.09a.81.81,0,0,1,.81-.81h11.13a.79.79,0,0,1,.78.78v.78a.79.79,0,0,1-.78.78Z"/><path class="cls-1" d="M328.67,66.84a7.21,7.21,0,0,1-7.62,7.47H316.7v5.22a.81.81,0,0,1-.81.81H315a.81.81,0,0,1-.81-.81V60.09a.81.81,0,0,1,.81-.81h6A7.3,7.3,0,0,1,328.67,66.84Zm-2.4,0a5,5,0,0,0-5.22-5.22H316.7V72h4.35A5,5,0,0,0,326.27,66.84Z"/><path class="cls-1" d="M359.7,69.81A10.67,10.67,0,1,1,349,59.16,10.68,10.68,0,0,1,359.7,69.81Zm-2.49,0A8.18,8.18,0,1,0,349,78.15,8,8,0,0,0,357.21,69.81Z"/><path class="cls-1" d="M383.76,79.53c.18.45,0,.81-.48.81h-.9a1.43,1.43,0,0,1-1.17-.81s-.36-.9-1.17-2.76a5.44,5.44,0,0,0-5.1-3.66h-2.49v6.42a.83.83,0,0,1-.84.81h-.84a.81.81,0,0,1-.81-.81V60.09a.81.81,0,0,1,.81-.81h6c5,0,7.62,3.15,7.62,7a6.4,6.4,0,0,1-4.71,6.48,8.73,8.73,0,0,1,2.7,3.66C383.22,78.3,383.76,79.53,383.76,79.53Zm-7-17.91h-4.35v9.15h4.35c3.69,0,5.22-2.19,5.22-4.53S380.49,61.62,376.8,61.62Z"/><path class="cls-1" d="M407.79,60.06v.78a.79.79,0,0,1-.78.78h-5.52V79.53a.81.81,0,0,1-.81.81h-.75a.81.81,0,0,1-.81-.81V61.62H393.6a.88.88,0,0,1-.78-.87v-.69a.79.79,0,0,1,.78-.78H407A.79.79,0,0,1,407.79,60.06Z"/><path class="cls-1" d="M420.1,61.62v6.54h6.75a.79.79,0,0,1,.78.78v.78a.79.79,0,0,1-.78.78H420.1V78h9.39a.8.8,0,0,1,.78.81v.75a.77.77,0,0,1-.78.78h-11a.81.81,0,0,1-.81-.81V60.09a.81.81,0,0,1,.81-.81h11.13a.79.79,0,0,1,.78.78v.78a.79.79,0,0,1-.78.78Z"/><path class="cls-1" d="M445.42,69.93c-2.88-.93-5.52-2.13-5.52-5.64,0-3.24,2.55-5.13,6.75-5.13a29.59,29.59,0,0,1,3.69.33c.72.12.93.42.78,1.2,0,.18-.09.33-.12.54-.15.69-.57.69-1.26.6a23.13,23.13,0,0,0-3-.3c-2.58,0-4.38.63-4.38,2.88,0,1.74,2.07,2.52,4.74,3.36,3.36,1.08,6,2.55,6,6.24,0,3.54-2.37,6.48-7.23,6.48a18.56,18.56,0,0,1-4.11-.45c-.84-.21-1.05-.48-.9-1.26a6.31,6.31,0,0,1,.18-.72c.18-.66.84-.45,1.5-.3a14,14,0,0,0,3.33.36c2.85,0,4.74-1.17,4.74-4C450.67,72,448.33,70.86,445.42,69.93Z"/><path class="cls-1" d="M279.29,100.06v.78a.79.79,0,0,1-.78.78H269v6.54h6.39a.79.79,0,0,1,.78.78v.78a.79.79,0,0,1-.78.78H269v9a.81.81,0,0,1-.81.81h-.84a.81.81,0,0,1-.81-.81V100.09a.81.81,0,0,1,.81-.81h11.13A.79.79,0,0,1,279.29,100.06Z"/><path class="cls-1" d="M298.34,119.53c.18.45,0,.81-.48.81H297a1.43,1.43,0,0,1-1.17-.81s-.36-.9-1.17-2.76a5.44,5.44,0,0,0-5.1-3.66H287v6.42a.83.83,0,0,1-.84.81h-.84a.81.81,0,0,1-.81-.81V100.09a.81.81,0,0,1,.81-.81h6c5,0,7.62,3.15,7.62,7a6.4,6.4,0,0,1-4.71,6.48,8.73,8.73,0,0,1,2.7,3.66C297.8,118.3,298.34,119.53,298.34,119.53Zm-7-17.91H287v9.15h4.35c3.69,0,5.22-2.19,5.22-4.53S295.07,101.62,291.38,101.62Z"/><path class="cls-1" d="M306.74,101.62v6.54h6.75a.79.79,0,0,1,.78.78v.78a.79.79,0,0,1-.78.78h-6.75V118h9.39a.8.8,0,0,1,.78.81v.75a.77.77,0,0,1-.78.78h-11a.81.81,0,0,1-.81-.81V100.09a.81.81,0,0,1,.81-.81h11.13a.79.79,0,0,1,.78.78v.78a.79.79,0,0,1-.78.78Z"/><path class="cls-1" d="M330.83,118.12a15.69,15.69,0,0,0,5.29-.9c.62-.21,1-.42,1.28.24.15.36.31.72.39,1,.12.42.12.75-.72,1a18.82,18.82,0,0,1-6.24,1c-5.87,0-10.13-4.8-10.13-10.68S325,99.16,330.83,99.16a18.93,18.93,0,0,1,6.24,1c.84.27.84.57.72,1a9,9,0,0,1-.39,1c-.27.63-.66.45-1.28.24a15,15,0,0,0-5.29-.9c-4.53,0-7.64,3.48-7.64,8.28S326.3,118.12,330.83,118.12Z"/><path class="cls-1" d="M343.11,100.09a.81.81,0,0,1,.81-.81h.84a.83.83,0,0,1,.84.81v12.69c0,4.08,2.16,5.34,5.22,5.34s5.19-1.26,5.19-5.34V100.09a.83.83,0,0,1,.84-.81h.84a.81.81,0,0,1,.81.81V112.3c0,4.83-2.31,8.19-7.68,8.19s-7.71-3.36-7.71-8.19Z"/><path class="cls-1" d="M366.84,101.62v6.54h6.75a.79.79,0,0,1,.78.78v.78a.79.79,0,0,1-.78.78h-6.75V118h9.39a.8.8,0,0,1,.78.81v.75a.77.77,0,0,1-.78.78h-11a.81.81,0,0,1-.81-.81V100.09a.81.81,0,0,1,.81-.81h11.13a.79.79,0,0,1,.78.78v.78a.79.79,0,0,1-.78.78Z"/><path class="cls-1" d="M398,100.09v19.44a.81.81,0,0,1-.81.81h-.51a1.92,1.92,0,0,1-1.38-.81l-10.59-15.18v15.18a.81.81,0,0,1-.81.81H383a.81.81,0,0,1-.81-.81V100.09a.81.81,0,0,1,.81-.81h.33a2.14,2.14,0,0,1,1.41.81l10.74,15.45V100.09a.81.81,0,0,1,.81-.81h.87A.81.81,0,0,1,398,100.09Z"/><path class="cls-1" d="M417.81,100.06v.78a.79.79,0,0,1-.78.78h-5.52v17.91a.81.81,0,0,1-.81.81H410a.81.81,0,0,1-.81-.81V101.62h-5.52a.89.89,0,0,1-.78-.87v-.69a.8.8,0,0,1,.78-.78H417A.79.79,0,0,1,417.81,100.06Z"/><path class="cls-1" d="M425.11,101.62v6.54h6.75a.79.79,0,0,1,.78.78v.78a.79.79,0,0,1-.78.78h-6.75V118h9.39a.8.8,0,0,1,.78.81v.75a.77.77,0,0,1-.78.78h-11a.81.81,0,0,1-.81-.81V100.09a.81.81,0,0,1,.81-.81h11.13a.79.79,0,0,1,.78.78v.78a.79.79,0,0,1-.78.78Z"/><path class="cls-1" d="M445.42,109.93c-2.88-.93-5.52-2.13-5.52-5.64,0-3.24,2.55-5.13,6.75-5.13a29.59,29.59,0,0,1,3.69.33c.72.12.93.42.78,1.2,0,.18-.09.33-.12.54-.15.69-.57.69-1.26.6a23.13,23.13,0,0,0-3-.3c-2.58,0-4.38.63-4.38,2.88,0,1.74,2.07,2.52,4.74,3.36,3.36,1.08,6,2.55,6,6.24,0,3.54-2.37,6.48-7.23,6.48a18.56,18.56,0,0,1-4.11-.45c-.84-.21-1.05-.48-.9-1.26a6.31,6.31,0,0,1,.18-.72c.18-.66.84-.45,1.5-.3a14,14,0,0,0,3.33.36c2.85,0,4.74-1.17,4.74-4C450.67,112,448.33,110.86,445.42,109.93Z"/><path class="cls-1" d="M285,149.75c0,5.13-2.94,10.59-11.25,10.59H267a.83.83,0,0,1-.81-.84V140.06a.81.81,0,0,1,.81-.81h6.75C282.08,139.25,285,144.62,285,149.75Zm-5.49,0c0-3-1-5.73-5.76-5.73l-2.16,0v11.58h2.16C278.48,155.57,279.53,152.75,279.53,149.75Z"/><path class="cls-1" d="M292.67,144v3.24h5.76a.81.81,0,0,1,.81.81v3.15a.78.78,0,0,1-.81.78h-5.76v3.63h8.49a.76.76,0,0,1,.78.78v3.15a.78.78,0,0,1-.78.81H288.08a.83.83,0,0,1-.81-.84V140.06a.81.81,0,0,1,.81-.81h13.08a.77.77,0,0,1,.78.78v3.18a.77.77,0,0,1-.78.78Z"/><path class="cls-1" d="M328.88,140v3.18a.77.77,0,0,1-.78.78h-4.89V159.5a.86.86,0,0,1-.84.84h-3.75a.83.83,0,0,1-.81-.84V144h-4.89a.88.88,0,0,1-.81-.87V140a.8.8,0,0,1,.81-.78H328.1A.77.77,0,0,1,328.88,140Z"/><path class="cls-1" d="M330.71,140.06a.81.81,0,0,1,.81-.81h3.87a.81.81,0,0,1,.81.81v12c0,2.49,1.35,3.66,3.78,3.66s3.78-1.17,3.78-3.66v-12a.81.81,0,0,1,.81-.81h3.84a.83.83,0,0,1,.84.81v12c0,5.49-3.27,8.43-9.27,8.43s-9.27-2.94-9.27-8.43Z"/><path class="cls-1" d="M373.52,140.06v12.75c0,5.34-3,7.65-8,7.65a17.43,17.43,0,0,1-4.74-.75c-.57-.18-.93-.54-.78-1.05l.87-3.09c.18-.69.63-.63,1-.51a15.78,15.78,0,0,0,3.63.63c1.74,0,2.49-.63,2.49-2.88V140.06a.81.81,0,0,1,.81-.81h3.87A.81.81,0,0,1,373.52,140.06Z"/><path class="cls-1" d="M376.34,140.06a.81.81,0,0,1,.81-.81H381a.81.81,0,0,1,.81.81v12c0,2.49,1.35,3.66,3.78,3.66s3.78-1.17,3.78-3.66v-12a.81.81,0,0,1,.81-.81H394a.83.83,0,0,1,.84.81v12c0,5.49-3.27,8.43-9.27,8.43s-9.27-2.94-9.27-8.43Z"/><path class="cls-1" d="M403.58,140.06V159.5a.86.86,0,0,1-.84.84H398.9a.83.83,0,0,1-.81-.84V140.06a.81.81,0,0,1,.81-.81h3.84A.83.83,0,0,1,403.58,140.06Z"/><path class="cls-1" d="M416.15,155.69a14.6,14.6,0,0,0,5.25-.93c.63-.18,1-.18,1.2.36l.93,2.49a1.26,1.26,0,0,1-.9,1.71,19.6,19.6,0,0,1-6.72,1.14c-6.51,0-10.14-4.47-10.14-10.68s3.63-10.65,10.14-10.65a18.64,18.64,0,0,1,6.6,1,1.3,1.3,0,0,1,1,1.71c-.18.48-.69,2-.84,2.49s-.54.6-1.2.42a16.72,16.72,0,0,0-5.28-.87c-3.24,0-4.89,2.07-4.89,5.88S412.91,155.69,416.15,155.69Z"/><path class="cls-1" d="M431.33,140.06V159.5a.86.86,0,0,1-.84.84h-3.84a.83.83,0,0,1-.81-.84V140.06a.81.81,0,0,1,.81-.81h3.84A.83.83,0,0,1,431.33,140.06Z"/><path class="cls-1" d="M455.09,149.78c0,5.91-3.93,10.68-10.77,10.68s-10.8-4.77-10.8-10.68,4-10.65,10.8-10.65S455.09,143.9,455.09,149.78Zm-5.49,0c0-3.81-2-5.88-5.28-5.88S439,146,439,149.78s2,5.91,5.31,5.91S449.6,153.62,449.6,149.78Z"/><path class="cls-2" d="M458,229H261a16,16,0,0,1-16-16V16A16,16,0,0,1,261,0H458a16,16,0,0,1,16,16V213A16,16,0,0,1,458,229ZM261,8a8,8,0,0,0-8,8V213a8,8,0,0,0,8,8H458a8,8,0,0,0,8-8V16a8,8,0,0,0-8-8Z"/><path class="cls-1" d="M33,326.74c0,4-2.76,6.75-7.14,6.75a13,13,0,0,1-4.38-1,.76.76,0,0,1-.51-1.08l.27-.72c.24-.66.84-.57,1.44-.36a8.82,8.82,0,0,0,3.18.84c3,0,4.74-1,4.74-4.47S29,322.3,26,322.3a9.81,9.81,0,0,0-3,.57,2.85,2.85,0,0,1-1,.09.74.74,0,0,1-.75-.81l.6-9.09a.87.87,0,0,1,.84-.78h8.73a.8.8,0,0,1,.81.78v.69a.8.8,0,0,1-.81.78H24.15c-.12,1.71-.3,4.56-.42,6a9.26,9.26,0,0,1,2.91-.51C30.51,320.05,33,322.72,33,326.74Z"/><path class="cls-1" d="M47.25,325.42v.69a.79.79,0,0,1-.78.78H42.69v3.75a.78.78,0,0,1-.78.81h-.66a.78.78,0,0,1-.78-.81v-3.75H36.69a.79.79,0,0,1-.78-.78v-.69a.79.79,0,0,1,.78-.78h3.78v-3.75a.76.76,0,0,1,.78-.78h.66a.76.76,0,0,1,.78.78v3.75h3.78A.79.79,0,0,1,47.25,325.42Z"/><path class="cls-1" d="M90.22,333.34h-1a1.23,1.23,0,0,1-1.08-.81s-.42-1.11-1.44-4.14h-8c-1,3-1.44,4.14-1.44,4.14a1.23,1.23,0,0,1-1.08.81h-1a.56.56,0,0,1-.54-.81l6.63-19.44a1.23,1.23,0,0,1,1.08-.81h.72a1.23,1.23,0,0,1,1.08.81l6.63,19.44A.56.56,0,0,1,90.22,333.34Zm-4.29-7.29c-.12-.33-.24-.66-.36-1-1.2-3.54-2.25-7.41-2.88-9.75-.63,2.34-1.68,6.21-2.88,9.75-.12.36-.24.69-.36,1Z"/><path class="cls-1" d="M109.51,313.09v19.44a.81.81,0,0,1-.81.81h-.51a1.92,1.92,0,0,1-1.38-.81L96.22,317.35v15.18a.81.81,0,0,1-.81.81h-.87a.81.81,0,0,1-.81-.81V313.09a.81.81,0,0,1,.81-.81h.33a2.14,2.14,0,0,1,1.41.81L107,328.54V313.09a.81.81,0,0,1,.81-.81h.87A.81.81,0,0,1,109.51,313.09Zm-3.3-4.26v.06a2,2,0,0,1-.6,1.44c-.87.87-2.73.84-4.08-.06-1.11-.75-2.55-1.2-3.36-.3-.33.36-.57.09-.57-.21v-.09a2.07,2.07,0,0,1,.57-1.44c.93-.93,2.88-.63,4,.12s2.25,1.2,3.39.27C106,308.32,106.21,308.5,106.21,308.83Z"/><path class="cls-1" d="M133.81,322.81a10.67,10.67,0,1,1-10.68-10.65A10.68,10.68,0,0,1,133.81,322.81Zm-2.49,0a8.18,8.18,0,1,0-8.19,8.34A8,8,0,0,0,131.32,322.81Z"/><path class="cls-1" d="M141.22,322.93c-2.88-.93-5.52-2.13-5.52-5.64,0-3.24,2.55-5.13,6.75-5.13a29.59,29.59,0,0,1,3.69.33c.72.12.93.42.78,1.2,0,.18-.09.33-.12.54-.15.69-.57.69-1.26.6a23.13,23.13,0,0,0-3-.3c-2.58,0-4.38.63-4.38,2.88,0,1.74,2.07,2.52,4.74,3.36,3.36,1.08,6,2.55,6,6.24s-2.37,6.48-7.23,6.48a18.56,18.56,0,0,1-4.11-.45c-.84-.21-1.05-.48-.9-1.26a6.31,6.31,0,0,1,.18-.72c.18-.66.84-.45,1.5-.3a14,14,0,0,0,3.33.36c2.85,0,4.74-1.17,4.74-4C146.47,325,144.13,323.86,141.22,322.93Z"/><path class="cls-1" d="M192.59,322.78c0,5.13-3,10.56-10.65,10.56h-4.83a.81.81,0,0,1-.81-.81V313.09a.81.81,0,0,1,.81-.81h4.83C189.59,312.28,192.59,317.65,192.59,322.78Zm-2.49,0c0-4-1.86-8.16-8.16-8.16H178.7V331h3.24C188.24,331,190.1,326.74,190.1,322.78Z"/><path class="cls-1" d="M198,314.62v6.54h6.75a.79.79,0,0,1,.78.78v.78a.79.79,0,0,1-.78.78H198V331h9.39a.8.8,0,0,1,.78.81v.75a.77.77,0,0,1-.78.78h-11a.81.81,0,0,1-.81-.81V313.09a.81.81,0,0,1,.81-.81h11.13a.79.79,0,0,1,.78.78v.78a.79.79,0,0,1-.78.78Z"/><path class="cls-1" d="M27.38,357v3.24h5.76A.81.81,0,0,1,34,361v3.15a.78.78,0,0,1-.81.78H27.38v3.63h8.49a.76.76,0,0,1,.78.78v3.15a.78.78,0,0,1-.78.81H22.79a.83.83,0,0,1-.81-.84V353.06a.81.81,0,0,1,.81-.81H35.87a.77.77,0,0,1,.78.78v3.18a.77.77,0,0,1-.78.78Z"/><path class="cls-1" d="M56.24,373.34H51.65a1.75,1.75,0,0,1-1.29-.84l-2.91-4.95-2.88,4.95a1.75,1.75,0,0,1-1.28.84H38.7c-.46,0-.61-.39-.33-.84l6.17-9.87-6-9.57c-.27-.45-.11-.81.33-.81h4.56a1.76,1.76,0,0,1,1.32.81l2.67,4.62,2.7-4.62a1.76,1.76,0,0,1,1.32-.81H56c.45,0,.6.36.33.81l-6,9.57,6.18,9.87C56.84,373,56.69,373.34,56.24,373.34Z"/><path class="cls-1" d="M74.9,359.72c0,3.81-2.22,7.59-8.22,7.59H64v5.19a.83.83,0,0,1-.81.84H59.27a.83.83,0,0,1-.81-.84V353.06a.81.81,0,0,1,.81-.81h7.41C72.68,352.25,74.9,355.88,74.9,359.72Zm-5.4,0c0-1.41-.57-2.7-3.3-2.7L64,357v5.55H66.2C68.93,362.54,69.5,361.1,69.5,359.72Z"/><path class="cls-1" d="M82.55,357v3.24h5.76a.81.81,0,0,1,.81.81v3.15a.78.78,0,0,1-.81.78H82.55v3.63H91a.76.76,0,0,1,.78.78v3.15a.78.78,0,0,1-.78.81H78a.83.83,0,0,1-.81-.84V353.06a.81.81,0,0,1,.81-.81H91a.77.77,0,0,1,.78.78v3.18A.77.77,0,0,1,91,357Z"/><path class="cls-1" d="M110.3,372.5c.18.45,0,.84-.48.84H106a1.38,1.38,0,0,1-1.17-.84s-.42-.9-1.2-2.76S101.84,367,100.1,367h-.54v5.55a.84.84,0,0,1-.84.84H94.88a.83.83,0,0,1-.81-.84V353.06a.81.81,0,0,1,.81-.81h7.38c6,0,8.22,3.39,8.22,7.23a6.39,6.39,0,0,1-4,6.33,9.22,9.22,0,0,1,2.46,3.54C109.76,371.27,110.3,372.5,110.3,372.5ZM101.78,357l-2.22,0v5.19h2.22c2.76,0,3.33-1.2,3.33-2.58S104.54,357,101.78,357Z"/><path class="cls-1" d="M118.22,353.06V372.5a.86.86,0,0,1-.84.84h-3.84a.83.83,0,0,1-.81-.84V353.06a.81.81,0,0,1,.81-.81h3.84A.83.83,0,0,1,118.22,353.06Z"/><path class="cls-1" d="M126.86,357v3.24h5.76a.81.81,0,0,1,.81.81v3.15a.78.78,0,0,1-.81.78h-5.76v3.63h8.49a.76.76,0,0,1,.78.78v3.15a.78.78,0,0,1-.78.81H122.27a.83.83,0,0,1-.81-.84V353.06a.81.81,0,0,1,.81-.81h13.08a.77.77,0,0,1,.78.78v3.18a.77.77,0,0,1-.78.78Z"/><path class="cls-1" d="M157.49,353.06V372.5a.86.86,0,0,1-.84.84h-4.17a1.74,1.74,0,0,1-1.68-.9l-7-10.5V372.5a.83.83,0,0,1-.81.84h-3.87a.83.83,0,0,1-.81-.84V353.06a.81.81,0,0,1,.81-.81h3.57a2.09,2.09,0,0,1,1.8,1.08L152,364.55V353.06a.81.81,0,0,1,.81-.81h3.84A.83.83,0,0,1,157.49,353.06Z"/><path class="cls-1" d="M170.09,368.69a14.6,14.6,0,0,0,5.25-.93c.63-.18,1-.18,1.2.36l.93,2.49a1.26,1.26,0,0,1-.9,1.71,19.6,19.6,0,0,1-6.72,1.14c-6.51,0-10.14-4.47-10.14-10.68s3.63-10.65,10.14-10.65a18.64,18.64,0,0,1,6.6,1,1.3,1.3,0,0,1,1,1.71c-.18.48-.69,2-.84,2.49s-.54.6-1.2.42a16.72,16.72,0,0,0-5.28-.87c-3.24,0-4.89,2.07-4.89,5.88S166.85,368.69,170.09,368.69Z"/><path class="cls-1" d="M185.27,353.06V372.5a.86.86,0,0,1-.84.84h-3.84a.83.83,0,0,1-.81-.84V353.06a.81.81,0,0,1,.81-.81h3.84A.83.83,0,0,1,185.27,353.06Z"/><path class="cls-1" d="M207.08,373.34h-4a1.3,1.3,0,0,1-1.11-.84l-1-2.91h-6.84l-1,2.91a1.26,1.26,0,0,1-1.08.84h-4a.56.56,0,0,1-.51-.84l6.6-19.44a1.27,1.27,0,0,1,1.11-.81h4.65a1.23,1.23,0,0,1,1.11.81l6.63,19.44A.58.58,0,0,1,207.08,373.34Zm-11.4-8.52h3.78c-.66-2.13-1.32-4.44-1.89-6.45C197,360.35,196.34,362.66,195.68,364.82Z"/><path class="cls-2" d="M213,476H16A16,16,0,0,1,0,460V263a16,16,0,0,1,16-16H213a16,16,0,0,1,16,16V460A16,16,0,0,1,213,476ZM16,255a8,8,0,0,0-8,8V460a8,8,0,0,0,8,8H213a8,8,0,0,0,8-8V263a8,8,0,0,0-8-8Z"/><path class="cls-1" d="M273.84,308.06v.78a.79.79,0,0,1-.78.78h-5.52v17.91a.81.81,0,0,1-.81.81H266a.81.81,0,0,1-.81-.81V309.62h-5.52a.88.88,0,0,1-.78-.87v-.69a.79.79,0,0,1,.78-.78h13.41A.79.79,0,0,1,273.84,308.06Z"/><path class="cls-1" d="M292.33,327.53c.18.45,0,.81-.48.81H291a1.43,1.43,0,0,1-1.17-.81s-.36-.9-1.17-2.76a5.44,5.44,0,0,0-5.1-3.66H281v6.42a.83.83,0,0,1-.84.81h-.84a.81.81,0,0,1-.81-.81V308.09a.81.81,0,0,1,.81-.81h6c5,0,7.62,3.15,7.62,7a6.4,6.4,0,0,1-4.71,6.48,8.73,8.73,0,0,1,2.7,3.66C291.79,326.3,292.33,327.53,292.33,327.53Zm-7-17.91H281v9.15h4.35c3.69,0,5.22-2.19,5.22-4.53S289.06,309.62,285.37,309.62Z"/><path class="cls-1" d="M312.77,328.34h-1a1.23,1.23,0,0,1-1.08-.81s-.42-1.11-1.44-4.14h-8c-1.05,3-1.44,4.14-1.44,4.14a1.23,1.23,0,0,1-1.08.81h-1a.56.56,0,0,1-.54-.81l6.63-19.44a1.23,1.23,0,0,1,1.08-.81h.72a1.23,1.23,0,0,1,1.08.81l6.63,19.44A.56.56,0,0,1,312.77,328.34Zm-4.29-7.29c-.12-.33-.24-.66-.36-1-1.2-3.54-2.25-7.41-2.88-9.75-.63,2.34-1.68,6.21-2.88,9.75-.12.36-.24.69-.36,1Z"/><path class="cls-1" d="M333.58,322.13c0,3.84-2.85,6.21-6.87,6.21H319.3a.81.81,0,0,1-.81-.81V308.09a.81.81,0,0,1,.81-.81h7c4,0,6.87,1.59,6.87,5.43a4.34,4.34,0,0,1-3,4.5A4.81,4.81,0,0,1,333.58,322.13Zm-7.26-12.51H321v6.54h5.34c3.3,0,4.38-1.74,4.38-3.45S329.62,309.62,326.32,309.62Zm4.77,12.51c0-1.71-1.08-3.6-4.38-3.6H321v7.59l5.73,0C330,326.09,331.09,323.81,331.09,322.13Z"/><path class="cls-1" d="M353.33,328.34h-1a1.23,1.23,0,0,1-1.08-.81s-.42-1.11-1.44-4.14h-8c-1,3-1.44,4.14-1.44,4.14a1.23,1.23,0,0,1-1.08.81h-1a.56.56,0,0,1-.54-.81l6.63-19.44a1.23,1.23,0,0,1,1.08-.81h.72a1.23,1.23,0,0,1,1.08.81l6.63,19.44A.56.56,0,0,1,353.33,328.34ZM349,321.05c-.12-.33-.24-.66-.36-1-1.2-3.54-2.25-7.41-2.88-9.75-.63,2.34-1.68,6.21-2.88,9.75-.12.36-.24.69-.36,1Z"/><path class="cls-1" d="M369.51,308.09v12.18c0,4.83-1.26,8.22-6,8.22a21.63,21.63,0,0,1-4.41-.54c-.57-.15-.84-.48-.72-1,.06-.27.15-.57.24-.84.18-.72.87-.63,1.26-.54a17.35,17.35,0,0,0,3.63.54c2.4,0,3.48-1.53,3.48-4.89V308.09a.81.81,0,0,1,.81-.81h.87A.81.81,0,0,1,369.51,308.09Z"/><path class="cls-1" d="M389.47,328.34h-1a1.23,1.23,0,0,1-1.08-.81s-.42-1.11-1.44-4.14h-8c-1.05,3-1.44,4.14-1.44,4.14a1.23,1.23,0,0,1-1.08.81h-1a.56.56,0,0,1-.54-.81l6.63-19.44a1.23,1.23,0,0,1,1.08-.81h.72a1.23,1.23,0,0,1,1.08.81L390,327.53A.56.56,0,0,1,389.47,328.34Zm-4.29-7.29c-.12-.33-.24-.66-.36-1-1.2-3.54-2.25-7.41-2.88-9.75-.63,2.34-1.68,6.21-2.88,9.75-.12.36-.24.69-.36,1Z"/><path class="cls-1" d="M417.38,327.53a.74.74,0,0,1-.75.81h-.84a.91.91,0,0,1-.9-.81l-1.26-13.74-6,13.74a1.52,1.52,0,0,1-1.26.81h-.66a1.52,1.52,0,0,1-1.26-.81l-6.12-14-1.29,14a.88.88,0,0,1-.87.81h-.87a.72.72,0,0,1-.72-.81l1.77-19.44a.91.91,0,0,1,.9-.81h.3a1.39,1.39,0,0,1,1.17.81L406,324.86l7.32-16.77a1.46,1.46,0,0,1,1.11-.81h.3a.93.93,0,0,1,.84.81Z"/><path class="cls-1" d="M442.84,317.81a10.67,10.67,0,1,1-10.68-10.65A10.68,10.68,0,0,1,442.84,317.81Zm-2.49,0a8.18,8.18,0,1,0-8.19,8.34A8,8,0,0,0,440.35,317.81Z"/><path class="cls-1" d="M452.42,317.93c-2.88-.93-5.52-2.13-5.52-5.64,0-3.24,2.55-5.13,6.75-5.13a29.59,29.59,0,0,1,3.69.33c.72.12.93.42.78,1.2,0,.18-.09.33-.12.54-.15.69-.57.69-1.26.6a23.13,23.13,0,0,0-3-.3c-2.58,0-4.38.63-4.38,2.88,0,1.74,2.07,2.52,4.74,3.36,3.36,1.08,6,2.55,6,6.24s-2.37,6.48-7.23,6.48a18.56,18.56,0,0,1-4.11-.45c-.84-.21-1.05-.48-.9-1.26a6.31,6.31,0,0,1,.18-.72c.18-.66.84-.45,1.5-.3a14,14,0,0,0,3.33.36c2.85,0,4.74-1.17,4.74-4C457.67,320,455.33,318.86,452.42,317.93Z"/><path class="cls-1" d="M262,349.62v6.54h6.75a.79.79,0,0,1,.78.78v.78a.79.79,0,0,1-.78.78H262V366h9.39a.8.8,0,0,1,.78.81v.75a.77.77,0,0,1-.78.78h-11a.81.81,0,0,1-.81-.81V348.09a.81.81,0,0,1,.81-.81h11.13a.79.79,0,0,1,.78.78v.78a.79.79,0,0,1-.78.78Z"/><path class="cls-1" d="M290.52,348.09v19.44a.81.81,0,0,1-.81.81h-.51a1.92,1.92,0,0,1-1.38-.81l-10.59-15.18v15.18a.81.81,0,0,1-.81.81h-.87a.81.81,0,0,1-.81-.81V348.09a.81.81,0,0,1,.81-.81h.33a2.14,2.14,0,0,1,1.41.81L288,363.54V348.09a.81.81,0,0,1,.81-.81h.87A.81.81,0,0,1,290.52,348.09Z"/><path class="cls-1" d="M313.1,363.69a14.6,14.6,0,0,0,5.25-.93c.63-.18,1-.18,1.2.36l.93,2.49a1.26,1.26,0,0,1-.9,1.71,19.6,19.6,0,0,1-6.72,1.14c-6.51,0-10.14-4.47-10.14-10.68s3.63-10.65,10.14-10.65a18.64,18.64,0,0,1,6.6,1,1.3,1.3,0,0,1,1,1.71c-.18.48-.69,2-.84,2.49s-.54.6-1.2.42a16.72,16.72,0,0,0-5.28-.87c-3.24,0-4.89,2.07-4.89,5.88S309.86,363.69,313.1,363.69Z"/><path class="cls-1" d="M342.65,357.78c0,5.91-3.93,10.68-10.77,10.68s-10.8-4.77-10.8-10.68,4-10.65,10.8-10.65S342.65,351.9,342.65,357.78Zm-5.49,0c0-3.81-2-5.88-5.28-5.88s-5.31,2.07-5.31,5.88,2,5.91,5.31,5.91S337.16,361.62,337.16,357.78Z"/><path class="cls-1" d="M363.68,348.06V367.5a.86.86,0,0,1-.84.84h-4.17a1.74,1.74,0,0,1-1.68-.9l-7-10.5V367.5a.83.83,0,0,1-.81.84h-3.87a.83.83,0,0,1-.81-.84V348.06a.81.81,0,0,1,.81-.81h3.57a2.09,2.09,0,0,1,1.8,1.08l7.47,11.22V348.06a.81.81,0,0,1,.81-.81h3.84A.83.83,0,0,1,363.68,348.06Z"/><path class="cls-1" d="M379.13,348.06v12.75c0,5.34-3,7.65-8,7.65a17.43,17.43,0,0,1-4.74-.75c-.57-.18-.93-.54-.78-1l.87-3.09c.18-.69.63-.63,1-.51a15.78,15.78,0,0,0,3.63.63c1.74,0,2.49-.63,2.49-2.88V348.06a.81.81,0,0,1,.81-.81h3.87A.81.81,0,0,1,379.13,348.06Z"/><path class="cls-1" d="M381.65,348.06a.81.81,0,0,1,.81-.81h3.87a.81.81,0,0,1,.81.81v12c0,2.49,1.35,3.66,3.78,3.66s3.78-1.17,3.78-3.66v-12a.81.81,0,0,1,.81-.81h3.84a.83.83,0,0,1,.84.81v12c0,5.49-3.27,8.43-9.27,8.43s-9.27-2.94-9.27-8.43Z"/><path class="cls-1" d="M422.24,348.06V367.5a.86.86,0,0,1-.84.84h-4.17a1.74,1.74,0,0,1-1.68-.9l-7-10.5V367.5a.83.83,0,0,1-.81.84h-3.87a.83.83,0,0,1-.81-.84V348.06a.81.81,0,0,1,.81-.81h3.57a2.09,2.09,0,0,1,1.8,1.08l7.47,11.22V348.06a.81.81,0,0,1,.81-.81h3.84A.83.83,0,0,1,422.24,348.06Z"/><path class="cls-1" d="M440.51,348v3.18a.77.77,0,0,1-.78.78h-4.89V367.5a.86.86,0,0,1-.84.84h-3.75a.83.83,0,0,1-.81-.84V352h-4.89a.88.88,0,0,1-.81-.87V348a.8.8,0,0,1,.81-.78h15.18A.77.77,0,0,1,440.51,348Z"/><path class="cls-1" d="M460.52,357.78c0,5.91-3.93,10.68-10.77,10.68S439,363.69,439,357.78s4-10.65,10.8-10.65S460.52,351.9,460.52,357.78Zm-5.49,0c0-3.81-2-5.88-5.28-5.88s-5.31,2.07-5.31,5.88,2,5.91,5.31,5.91S455,361.62,455,357.78Z"/><path class="cls-1" d="M269,406.12a15.57,15.57,0,0,0,5.28-.9c.63-.21,1-.42,1.29.24.15.36.3.72.39,1,.12.42.12.75-.72,1a18.82,18.82,0,0,1-6.24,1.05c-5.88,0-10.14-4.8-10.14-10.68s4.26-10.65,10.14-10.65a18.93,18.93,0,0,1,6.24,1c.84.27.84.57.72,1s-.24.66-.39,1c-.27.63-.66.45-1.29.24a14.86,14.86,0,0,0-5.28-.9c-4.53,0-7.65,3.48-7.65,8.28S264.48,406.12,269,406.12Z"/><path class="cls-1" d="M298.59,397.81a10.67,10.67,0,1,1-10.68-10.65A10.68,10.68,0,0,1,298.59,397.81Zm-2.49,0a8.18,8.18,0,1,0-8.19,8.34A8,8,0,0,0,296.1,397.81Z"/><path class="cls-1" d="M317,388.09v19.44a.81.81,0,0,1-.81.81h-.51a1.92,1.92,0,0,1-1.38-.81l-10.59-15.18v15.18a.81.81,0,0,1-.81.81H302a.81.81,0,0,1-.81-.81V388.09a.81.81,0,0,1,.81-.81h.33a2.14,2.14,0,0,1,1.41.81l10.74,15.45V388.09a.81.81,0,0,1,.81-.81h.87A.81.81,0,0,1,317,388.09Z"/><path class="cls-1" d="M352.87,388.06v.78a.79.79,0,0,1-.78.78h-5.52v17.91a.81.81,0,0,1-.81.81H345a.81.81,0,0,1-.81-.81V389.62h-5.52a.88.88,0,0,1-.78-.87v-.69a.79.79,0,0,1,.78-.78h13.41A.79.79,0,0,1,352.87,388.06Z"/><path class="cls-1" d="M355.09,388.09a.81.81,0,0,1,.81-.81h.84a.83.83,0,0,1,.84.81v12.69c0,4.08,2.16,5.34,5.22,5.34s5.19-1.26,5.19-5.34V388.09a.83.83,0,0,1,.84-.81h.84a.81.81,0,0,1,.81.81V400.3c0,4.83-2.31,8.19-7.68,8.19s-7.71-3.36-7.71-8.19Z"/><path class="cls-1" d="M406.49,394.84a7.21,7.21,0,0,1-7.62,7.47h-4.35v5.22a.81.81,0,0,1-.81.81h-.87a.81.81,0,0,1-.81-.81V388.09a.81.81,0,0,1,.81-.81h6A7.3,7.3,0,0,1,406.49,394.84Zm-2.4,0a5,5,0,0,0-5.22-5.22h-4.35V400h4.35A5,5,0,0,0,404.09,394.84Z"/><path class="cls-1" d="M421.19,388.09l-5.55,12.21a1,1,0,0,1-.39.48v6.75a.81.81,0,0,1-.81.81h-.78a.81.81,0,0,1-.81-.81v-6.75a1.53,1.53,0,0,1-.39-.48l-5.52-12.21c-.21-.45,0-.81.45-.81h1.08a1.39,1.39,0,0,1,1.17.81s.51,1.11,1.14,2.52c.84,1.83,2.31,5.22,3.27,7.47,1-2.25,2.43-5.64,3.27-7.47.63-1.41,1.14-2.52,1.14-2.52a1.43,1.43,0,0,1,1.17-.81h1.11C421.19,387.28,421.37,387.64,421.19,388.09Z"/><path class="cls-1" d="M444.86,407.53a.74.74,0,0,1-.75.81h-.84a.91.91,0,0,1-.9-.81l-1.26-13.74-6,13.74a1.52,1.52,0,0,1-1.26.81h-.66a1.52,1.52,0,0,1-1.26-.81l-6.12-14-1.29,14a.88.88,0,0,1-.87.81h-.87a.72.72,0,0,1-.72-.81l1.77-19.44a.91.91,0,0,1,.9-.81h.3a1.39,1.39,0,0,1,1.17.81l7.32,16.77,7.32-16.77a1.46,1.46,0,0,1,1.11-.81h.3a.93.93,0,0,1,.84.81Z"/><path class="cls-1" d="M450,389.62v6.54h6.75a.79.79,0,0,1,.78.78v.78a.79.79,0,0,1-.78.78H450V406h9.39a.8.8,0,0,1,.78.81v.75a.77.77,0,0,1-.78.78h-11a.81.81,0,0,1-.81-.81V388.09a.81.81,0,0,1,.81-.81h11.13a.79.79,0,0,1,.78.78v.78a.79.79,0,0,1-.78.78Z"/><path class="cls-2" d="M458,476H261a16,16,0,0,1-16-16V263a16,16,0,0,1,16-16H458a16,16,0,0,1,16,16V460A16,16,0,0,1,458,476ZM261,255a8,8,0,0,0-8,8V460a8,8,0,0,0,8,8H458a8,8,0,0,0,8-8V263a8,8,0,0,0-8-8Z"/></g></g></svg>