<svg xmlns="http://www.w3.org/2000/svg" viewBox="0 0 165.23 59.51"><defs><style>.cls-1{fill:#0cedae;stroke:#0cedae;stroke-linecap:round;stroke-linejoin:round;stroke-width:0.25px;}</style></defs><g id="Capa_2" data-name="Capa 2"><g id="Capa_4" data-name="Capa 4"><path class="cls-1" d="M162.83,2.06c3.49,3.68,2.9,7.74-1.36,11.42-11,9.3-23,18.21-46.09,19.76-23.24,1.35-26.92,7-26.92,17.43v4.06a4.63,4.63,0,0,1-4.84,4.65H82.07c-2.9,0-5.23-1.74-5.23-4.65V50.67c0-10.46-3.68-16.08-26.91-17.43S14.68,22.78,3.83,13.48C-.43,9.8-1.2,5.74,2.48,2.06,5.58-1,9.64.12,12.94,3,23,11.55,29,16.19,52.64,17.94c14.33,1,24.4,4.65,30,12.59,5.62-7.94,15.5-11.62,29.83-12.59,23.82-1.75,29.82-6.39,39.89-15.11C155.66.12,159.54-1.23,162.83,2.06Z"/></g></g></svg>