<svg xmlns="http://www.w3.org/2000/svg" viewBox="0 0 48.28 81"><defs><style>.cls-1{fill:#0cedae;}</style></defs><g id="Capa_2" data-name="Capa 2"><g id="Capa_4" data-name="Capa 4"><path class="cls-1" d="M48.17,51.94a2.1,2.1,0,0,0-.12-.91c-.11-.58-.23-1.15-.34-1.61a7.64,7.64,0,0,0-.46-1.48,11.18,11.18,0,0,0-2.4-3.66,19.19,19.19,0,0,0-3.32-2.75,20.32,20.32,0,0,0-3.09-1.6,27.18,27.18,0,0,0-3.32-1.26L34,38.33V19a12.09,12.09,0,0,1,3.32,4.46c.23.58.45,1.26.68,1.95a4.54,4.54,0,0,0,.69,1.83l.34.34c.12.12.23.12.35.23a1.35,1.35,0,0,0,.68.12,1.52,1.52,0,0,1,.69.11c.23,0,.46.11.69.11h.8A10.85,10.85,0,0,0,44.16,28a1.62,1.62,0,0,0,1.37-.69,5.88,5.88,0,0,0,.35-1.26,5.73,5.73,0,0,0-.12-1.48c-.23-1-.57-2.06-.8-3.09a9.1,9.1,0,0,0-1.14-2.63,5.61,5.61,0,0,1-.46-.92,3.79,3.79,0,0,0-.57-.91c-.23-.23-.46-.58-.69-.8s-.46-.58-.68-.81S41.19,15.1,41,15s-.35-.23-.46-.35l-.34-.34L39.81,14a6.53,6.53,0,0,0-.91-.69A2.47,2.47,0,0,1,38,12.7a20,20,0,0,0-3.77-1.95V2.29a2.29,2.29,0,1,0-4.58,0V9.5a31.53,31.53,0,0,0-6.75-.35c-.11.12-.34.12-.69.12h-.8a6.19,6.19,0,0,1-1.48.11h-.46V2.29a2.29,2.29,0,1,0-4.58,0v8.12a20.13,20.13,0,0,0-3.2,1.26.6.6,0,0,1-.46.23.87.87,0,0,0-.46.23,28.08,28.08,0,0,0-4.11,3.2,13,13,0,0,0-3.09,4.23A6.79,6.79,0,0,0,3,21.17c-.11.57-.34,1.14-.45,1.71a20.27,20.27,0,0,0-.46,2.4,5.71,5.71,0,0,0,.11,2.52v1c.12.57.35,1.26.46,1.83a6.7,6.7,0,0,0,.57,1.6,9.19,9.19,0,0,0,2.52,3.55,20.27,20.27,0,0,0,3.55,2.52,7,7,0,0,0,1.6.8l1.71.68a.38.38,0,0,1,.23.12A.35.35,0,0,1,13,40c.46.23,1,.35,1.6.57V62.69a10,10,0,0,1-1.83-1.14,13,13,0,0,1-4.34-5.72,4.15,4.15,0,0,1-.35-1.14c-.11-.35-.23-.8-.34-1.15a3.66,3.66,0,0,1-.23-.91,1.52,1.52,0,0,0-.34-.92,1.65,1.65,0,0,0-.8-.68,1.21,1.21,0,0,0-.58-.12H5.15a4.23,4.23,0,0,0-.69-.11H3.78a12.27,12.27,0,0,0-1.95.11,1.37,1.37,0,0,0-1.37.69A2.16,2.16,0,0,0,0,53a7.91,7.91,0,0,0,.11,1.72,2.07,2.07,0,0,1,.23.91,3.48,3.48,0,0,0,.23,1,15.61,15.61,0,0,0,.92,2.52,14,14,0,0,0,1.14,2.29,18.93,18.93,0,0,0,4.81,5.49,25,25,0,0,0,7,3.43h0v8.35a2.29,2.29,0,1,0,4.57,0V71.5h.23a6.72,6.72,0,0,0,1.6.12,9,9,0,0,1,1.72.11h.91c.23,0,.69.12,1.26.12A3.74,3.74,0,0,0,26,71.73H28c.23,0,.57-.11.91-.11h.35v7.09a2.29,2.29,0,1,0,4.57,0v-8c.58-.11,1.15-.34,1.61-.45a9.35,9.35,0,0,0,1.6-.58,31.82,31.82,0,0,0,4.69-2.74,15.89,15.89,0,0,0,3.66-3.66,14.09,14.09,0,0,0,1.26-2.18,21.37,21.37,0,0,0,.91-2.4l.35-1.37a5.53,5.53,0,0,1,.23-1.38v-.68a1.52,1.52,0,0,1,.11-.69V52.86A2.35,2.35,0,0,1,48.17,51.94Zm-25.06-36h1.37a5.37,5.37,0,0,1,1.38.12h.68a3.55,3.55,0,0,0,1,.23,3.39,3.39,0,0,1,1,.22c.23.12.57.12.8.23V37.07c-.34-.12-.57-.12-.91-.23A16.65,16.65,0,0,1,26,36.27c-.46-.12-1-.23-1.49-.35A6.33,6.33,0,0,1,23,35.69c-1.26-.34-2.52-.68-3.67-1V16.13A36.51,36.51,0,0,1,23.11,15.9ZM14,32.61a9.21,9.21,0,0,1-2.52-1.95,9.06,9.06,0,0,1-1.49-3,5.3,5.3,0,0,1-.23-1.49,5.81,5.81,0,0,1,.12-1.49c.11-.57.23-1,.34-1.6a6.5,6.5,0,0,1,.46-1.37,7.28,7.28,0,0,1,2.06-2.86,16.66,16.66,0,0,1,1.83-1.26V32.83A2,2,0,0,1,14,32.61Zm15.1,32.6c-.23,0-.57.12-.8.12a2,2,0,0,0-.8.11h-.57a2.73,2.73,0,0,1-1,.12c-.35,0-.8,0-.92-.12a2.3,2.3,0,0,0-.91-.11H22.31c-.46,0-.92-.12-1.37-.12A5.53,5.53,0,0,1,19.56,65c-.11,0-.23-.11-.34-.11V42.22c1.26.34,2.63.68,3.89.91,1.72.34,3.32.69,4.92,1,.46.12.8.23,1.26.34V65.21Zm11.21-8.92-.34,1.37A6.5,6.5,0,0,1,39.47,59a7.56,7.56,0,0,1-2.63,3.32,24.86,24.86,0,0,1-3,1.72v-18a30.78,30.78,0,0,1,2.75,1.48,11.16,11.16,0,0,1,2.06,1.83A8.22,8.22,0,0,1,40,51.83a1.37,1.37,0,0,1,.12.68,1.52,1.52,0,0,0,.11.69,5.32,5.32,0,0,1,.12,1.49A3.65,3.65,0,0,1,40.27,56.29Z"/></g></g></svg>