<svg xmlns="http://www.w3.org/2000/svg" viewBox="0 0 63.45 96.72"><defs><style>.cls-1{fill:#0cedae;}</style></defs><g id="Capa_2" data-name="Capa 2"><g id="Capa_4" data-name="Capa 4"><line class="cls-1" x1="31.72" y1="4" x2="31.72" y2="96.72"/><path class="cls-1" d="M31.36,90.55a4.14,4.14,0,0,1-3.64-4.19V4.21A4.14,4.14,0,0,1,31.36,0a4,4,0,0,1,4.36,4V86.57A4,4,0,0,1,31.36,90.55Z"/><path class="cls-1" d="M.84,56.18l2-1.88a2.64,2.64,0,0,1,3.74.13l25.09,27a0,0,0,0,0,.06,0l25.13-27a2.6,2.6,0,0,1,3.67-.14l2.09,2a2.56,2.56,0,0,1,.13,3.63l-27.89,30a4.32,4.32,0,0,1-6.32,0L.7,59.89A2.63,2.63,0,0,1,.84,56.18Z"/></g></g></svg>