<svg xmlns="http://www.w3.org/2000/svg" viewBox="0 0 195.33 167.83"><defs><style>.cls-1{fill:#2c324a;}</style></defs><g id="Capa_2" data-name="Capa 2"><g id="Capa_1-2" data-name="Capa 1"><path class="cls-1" d="M94.94,151.22c16.92,0,30.41,0,43.91,0a70.74,70.74,0,0,0,21.46-3.54c9-2.9,13.28-9.49,14.55-18.3a144.3,144.3,0,0,0,1-14.85c.09-2.3.92-3.34,3.26-3.3,4.33.07,8.67.05,13,0,2,0,3.19.63,3.17,2.83-.08,11.23-1.26,22.2-7.68,31.89-5.17,7.78-12.49,12.73-21.2,15.75C157,165,147.19,166,137.22,166.77c-22.79,1.77-45.58.82-68.35.67-13.51-.09-27.07-1.53-40-6.33S7.91,147.39,4.15,134.51A86.14,86.14,0,0,1,.84,110C.88,101.19,0,92.4,0,83.61,0,72.49.2,61.34,1.07,50.27c.65-8.21,2.17-16.31,5.77-24C11.61,16.06,19.49,9.81,29.77,6.2A97.09,97.09,0,0,1,55,1.11C81.42-.84,107.89.35,134.33.43a94.8,94.8,0,0,1,33.11,5.7c15.5,5.8,25.05,16.36,26.94,33.16.38,3.45.67,6.91.94,10.37.16,2.1-.94,3-3,3q-6.75-.06-13.5,0c-2.17,0-2.79-1.14-2.9-3.13a91.12,91.12,0,0,0-1-10.85c-2.45-13.93-9.28-18.63-22.32-20.92-4.86-.85-9.9-.67-14.84-1.11-23.26-2.11-46.57-.87-69.84-.77-9.67.05-19.53.31-29.09,2.79C29.94,21,24.49,26.4,22.33,35.33,20.92,41.18,20.77,47.11,20.19,53c-1.61,16.29-.67,32.58-.71,48.86a208,208,0,0,0,2.05,26.71,29.25,29.25,0,0,0,6,14.06,9.56,9.56,0,0,0,1.85,1.61C34.3,148,40,149.51,46,150.24,63.44,152.37,80.92,150.48,94.94,151.22Z"/><path class="cls-1" d="M100.08,133.63c-6.17,0-12.34.28-18.49-.07-7.09-.39-14.27-.72-21.19-2.17-11.31-2.39-19-9.19-21.28-21A65.36,65.36,0,0,1,38,99.06c-.15-11.32-.11-22.65,0-34a37.08,37.08,0,0,1,4.32-17.21c4.06-7.63,11.36-11,19.38-12.52a112,112,0,0,1,22.7-2.17c12.15.11,24.32-.27,36.47.14a86.88,86.88,0,0,1,22.5,3.33c10.91,3.31,16.23,11,17.92,21.62,2.34,14.53.86,29.21.95,43.83,0,4-1.24,8.16-2.29,12.14-2.41,9.19-9.26,13.83-17.79,16.36a83.68,83.68,0,0,1-24.05,3C112.07,133.62,106.07,133.63,100.08,133.63Zm-.22-9.41c5.33,0,10.66.12,16,0,6.47-.19,13-.26,19.39-1,9.52-1.07,12.82-5,14.52-12.59a42.84,42.84,0,0,0,1.13-8.87c.12-12.31.2-24.63,0-36.95a43,43,0,0,0-2-11.22,12.21,12.21,0,0,0-10.19-9.14,105.83,105.83,0,0,0-14.8-1.71c-14-.23-28-.19-41.95,0a161.87,161.87,0,0,0-17.88,1.07c-6.31.77-11.49,3.6-13.19,10.37a44,44,0,0,0-1.46,9.31c-.25,8.65-.34,17.31-.2,26a188.44,188.44,0,0,0,1.16,20.86c1,7.7,5.39,11.73,13.13,12.83a117.28,117.28,0,0,0,13.89,1.09C84.88,124.34,92.37,124.22,99.86,124.22Z"/></g></g></svg>